<?xml version="1.0" encoding="UTF-8"?>
<svg
  xmlns="http://www.w3.org/2000/svg"
  version="1.1"
  viewBox="0 0 500 500"
  width="48"
  height="48"
>
  <defs>
    <style>
      .cls-1 {
        fill: #fab61a;
      }

      .cls-1, .cls-2, .cls-3 {
        stroke-width: 9px;
      }

      .cls-1, .cls-2, .cls-3, .cls-4, .cls-5, .cls-6, .cls-7, .cls-8 {
        stroke: #000;
        stroke-miterlimit: 10;
      }

      .cls-2, .cls-8 {
        fill: #fff;
      }

      .cls-3, .cls-5 {
        fill: #ff912e;
      }

      .cls-4 {
        fill: #ff6440;
      }

      .cls-4, .cls-5 {
        stroke-width: 11px;
      }

      .cls-6 {
        fill: #ffe201;
      }

      .cls-6, .cls-7 {
        stroke-width: 7px;
      }

      .cls-7 {
        fill: #bc8515;
      }

      .cls-8 {
        stroke-width: 8px;
      }
    </style>
  </defs>
  <!-- Generator: Adobe Illustrator 28.7.0, SVG Export Plug-In . SVG Version: 1.2.0 Build 136)  -->
  <g>
    <g id="_레이어_1" data-name="레이어_1">
      <path class="cls-1" d="M425.22,215.44s122.67,83.56-2.67,52"/>
      <path class="cls-3" d="M162.83,409.44c-15.66,9.02-4.08,73.28-4.08,73.28,0,0-18.38-48.02-43.36-47.74s-41.6,44.43-41.6,44.43c0,0,16.22-46.7-8.36-68.3-24.58-21.6-66.07,8.07-66.07,8.07,0,0,39.09-33.25,36.17-60.77-2.93-27.52-57.39-41.24-57.39-41.24,0,0,62.4,18.89,78.04-1.85,15.64-20.74-12.31-71.39-12.31-71.39,0,0,38.75,48.2,51.45,37.12"/>
      <path class="cls-7" d="M47.89,194.33s3.78,9.11,18.89,13.56,17.56-46.22,17.56-46.22c0,0-35.33,14.44-36.44,32.67Z"/>
      <g>
        <path class="cls-5" d="M197.67,427.89"/>
        <path class="cls-5" d="M392.03,158.26"/>
        <path class="cls-5" d="M417.22,252.33"/>
        <path class="cls-5" d="M238.56,434.56"/>
        <path class="cls-5" d="M390.04,164.61"/>
        <path class="cls-5" d="M182.21,424"/>
      </g>
      <circle class="cls-4" cx="242.26" cy="255.34" r="177.8"/>
      <path class="cls-4" d="M388.78,156.78s49.78,232.89-232,257.78"/>
      <path class="cls-4" d="M338.11,111.44s-165.33,14.22-231.11,230.22"/>
      <path class="cls-1" d="M48.98,194.6c10.35-34.79,263.68-155.06,380.51,71.45,3.88,4.68,28.18-190.37-151.82-218.6C97.66,19.22,48.98,194.6,48.98,194.6Z"/>
      <path class="cls-6" d="M143.15,45.37c0,58.07-14.52,74.67-47.7,74.67,32.89,0,46.45,16.59,46.45,64.55,0-47.36,13.4-64.25,49.55-64.25-36.74,0-48.3-16.3-48.3-74.96Z"/>
      <path class="cls-6" d="M80.09,126.76c0,15.27-7.27,41.43-23.83,41.43,16.27,0,22.19,17.26,22.19,35.5,0-18.24,10.14-35.39,23.21-35.39-16.76,0-21.57-26.15-21.57-41.54Z"/>
      <path class="cls-2" d="M400.65,344.26c-.03-14.64,51.66-109.75,46.67-73.45,57.35-5.46,62.24,43.88,19.79,66.45,34.77,39.26,11.52,30.96-21.15,48.1-34.14,17.91-95.41,119.51-153.03,84.14-46.51-28.55-145.73,2.55-164.3,9.96-18.57,7.41-4.51-23.74,7.81-26.38-28.34-10.55,52.13-49.34,78.33-27.57,40.23,33.43,186.17,44.68,185.87-81.24Z"/>
    </g>
    <g id="_레이어_2" data-name="레이어_2">
      <polygon class="cls-8" points="216.5 370.73 123.93 206.85 87.85 213.76 119.68 325.12 57.69 228.44 30.35 259.87 88.63 423.39 115.6 426.25 94.59 345.86 143.23 408.54 169.08 395.95 152.34 317.75 195.75 387.23 216.5 370.73"/>
      <path class="cls-8" d="M330.97,262.83l26.48-13.59s57.58,50.66,51.65-18.35l-99.35-38.37s-30.19-60.28,18.5-82.14,73.16,30.18,73.16,30.18l-23.95,10.75s-13.63-23.29-35.98-13.26c-22.35,10.03-7.38,36.9-7.38,36.9l101.08,38.68s21.53,56.51-19.62,75.95c-41.15,19.43-79.49-17.54-84.59-26.76Z"/>
      <path class="cls-8" d="M235.22,146.47c-7.76-1.48-45.15,14.26-52.95,18.18-7.8,3.9,32.4,202.69,32.4,202.69l46.38-1.11s-2.77-11.43-7.24-29.86c8.81-13.57,23.29-20.45,45.94-18.54l16.48,23.58s32.83-34.59,32.37-36.49c-.46-1.9-105.65-156.96-113.4-158.44ZM234.03,284.75c-3.95,6.33-9.48-88.5-9.48-88.5,0,0,61.11,71.12,55.31,71.12-11.85-3.96-39.45,7.16-45.84,17.38Z"/>
    </g>
  </g>
</svg>
